<svg width="145" height="48" viewBox="0 0 145 48" fill="none" xmlns="http://www.w3.org/2000/svg">
<g clip-path="url(#clip0_4603_8670)">
<path d="M133.461 0H9.09053C8.27816 0.0118293 7.46783 0.0840504 6.66639 0.216054C5.86315 0.345762 5.08582 0.601006 4.36345 0.972243C3.63332 1.33699 2.96971 1.81972 2.3999 2.4006C1.81764 2.9658 1.33431 3.62292 0.969656 4.34509C0.601913 5.0634 0.34454 5.83206 0.206052 6.62566C0.0707902 7.41888 0.00187227 8.2218 0 9.02626C0 9.39835 0 9.77044 0 10.1305V37.8815C0 38.2536 0 38.6137 0 38.9857C0.00187227 39.7902 0.0707902 40.5931 0.206052 41.3863C0.342654 42.1842 0.600089 42.9571 0.969656 43.6789C1.33769 44.3955 1.82072 45.0481 2.3999 45.6114C2.97065 46.188 3.63421 46.6666 4.36345 47.0278C5.0881 47.3936 5.86457 47.6486 6.66639 47.7839C7.46783 47.9159 8.27816 47.9882 9.09053 48H135.897C136.71 47.9882 137.52 47.9159 138.321 47.7839C139.127 47.6469 139.907 47.3921 140.637 47.0278C141.364 46.6635 142.027 46.1852 142.6 45.6114C143.172 45.0418 143.654 44.3904 144.03 43.6789C144.394 42.9559 144.648 42.1832 144.782 41.3863C144.915 40.5927 144.988 39.7902 145 38.9857C145 38.6137 145 38.2536 145 37.8815V10.1305C145 9.77044 145 9.39835 145 9.02626C144.988 8.22178 144.915 7.41932 144.782 6.62566C144.648 5.83262 144.394 5.06393 144.03 4.34509C143.278 2.90395 142.092 1.72967 140.637 0.984246C139.907 0.61994 139.127 0.36509 138.321 0.228057C137.52 0.0960534 136.71 0.0238323 135.897 0.012003H133.473L133.461 0Z" fill="#A6A6A6" fill-opacity="0.5"/>
<path d="M10.1468 46.9519H9.05497C8.29613 46.964 7.53753 46.9158 6.78648 46.8077C6.0778 46.6719 5.39448 46.4286 4.7606 46.0865C4.13865 45.7755 3.56969 45.3699 3.0744 44.8845C2.57836 44.3944 2.16836 43.8256 1.8613 43.2017C1.53646 42.5747 1.3114 41.9016 1.1941 41.2064C1.07483 40.4628 1.00996 39.7116 1 38.9587C1 38.7063 1 37.8529 1 37.8529V10.075C1 10.075 1 9.24562 1 9.00523C1.00996 8.25233 1.07483 7.50114 1.1941 6.75751C1.30514 6.05474 1.52616 5.37344 1.84917 4.73818C2.15981 4.1164 2.56941 3.54821 3.06227 3.0554C3.56239 2.5703 4.13528 2.16483 4.7606 1.85341C5.39346 1.53155 6.07273 1.30855 6.77435 1.19232C7.52809 1.06748 8.29078 1.00317 9.05497 1H10.1589H134.817H135.933C136.689 1.00435 137.444 1.06866 138.189 1.19232C138.894 1.3103 139.577 1.53318 140.215 1.85341C141.469 2.49012 142.491 3.49857 143.139 4.73818C143.454 5.36378 143.675 6.03206 143.794 6.72145C143.917 7.46882 143.986 8.22402 144 8.98119V10.051C144 10.5077 144 10.9404 144 11.3731V36.5427C144 36.9875 144 37.4082 144 37.8409V38.9587C143.986 39.7039 143.917 40.4471 143.794 41.1824C143.681 41.8809 143.46 42.5579 143.139 43.1897C142.823 43.805 142.414 44.3685 141.926 44.8605C141.428 45.3483 140.854 45.7541 140.227 46.0625C139.596 46.4147 138.912 46.6662 138.201 46.8077C137.452 46.9314 136.693 46.9957 135.933 47H10.1468V46.9519Z" fill="black"/>
<path d="M30.0195 24.1259C30.0313 23.1141 30.2999 22.1219 30.8001 21.2422C31.3003 20.3626 32.0157 19.6245 32.8793 19.0971C32.3301 18.3143 31.6062 17.6703 30.7649 17.2159C29.9235 16.7616 28.9879 16.5095 28.0322 16.4797C26.0086 16.2616 24.0334 17.6914 22.9913 17.6914C21.9491 17.6914 20.3375 16.4797 18.6168 16.4797C17.505 16.5158 16.4216 16.8396 15.4722 17.4194C14.5229 17.9992 13.7401 18.8152 13.2002 19.7878C10.9099 23.8957 12.6064 29.8212 14.8482 33.1415C15.9751 34.7531 17.2717 36.5465 19.0045 36.4738C20.7374 36.4011 21.3069 35.4075 23.3427 35.4075C25.3784 35.4075 25.9358 36.4738 27.6929 36.4375C29.45 36.4011 30.6375 34.8258 31.716 33.202C32.5254 32.0599 33.1471 30.7959 33.5579 29.4577C32.5095 29.0149 31.6148 28.273 30.9856 27.3248C30.3563 26.3766 30.0203 25.264 30.0195 24.1259Z" fill="white"/>
<path d="M26.661 14.3228C27.6437 13.1424 28.1264 11.6249 28.0061 10.0938C26.5041 10.2559 25.1168 10.9733 24.1163 12.1053C23.6297 12.6598 23.2572 13.3048 23.0201 14.0035C22.7831 14.7021 22.6862 15.4407 22.7349 16.1768C23.4868 16.1842 24.2307 16.0213 24.9107 15.7002C25.5906 15.3791 26.189 14.9082 26.661 14.3228Z" fill="white"/>
<path d="M51.2612 32.4142H45.5296L44.1481 36.4857H41.7246L47.1533 21.4355H49.6859L55.1146 36.4857H52.6911L51.2612 32.4142ZM46.1233 30.5359H50.6674L48.4741 23.9318H48.4136L46.1233 30.5359Z" fill="white"/>
<path d="M66.8422 31.0335C66.8422 34.4386 65.0125 36.6319 62.2618 36.6319C61.5597 36.663 60.8631 36.4953 60.2521 36.148C59.6412 35.8007 59.1407 35.288 58.8082 34.6688V40.0975H56.5059V25.5563H58.687V27.3982C59.0402 26.788 59.5527 26.2853 60.1695 25.9438C60.7863 25.6023 61.4844 25.4348 62.189 25.4594C65.0125 25.3988 66.8422 27.5921 66.8422 31.0335ZM64.5278 31.0335C64.5278 28.816 63.316 27.3982 61.6316 27.3982C59.9473 27.3982 58.7476 28.8887 58.7476 31.0335C58.7476 33.1783 59.9594 34.7294 61.6316 34.7294C63.3039 34.7294 64.5278 33.2389 64.5278 31.0335Z" fill="white"/>
<path d="M78.9121 31.0336C78.9121 34.4387 77.0945 36.632 74.3438 36.632C73.6415 36.6645 72.9443 36.4974 72.3331 36.15C71.7218 35.8025 71.2216 35.289 70.8902 34.6689V40.0976H68.5879V25.5564H70.7691V27.3983C71.1193 26.7881 71.6294 26.2851 72.2443 25.9435C72.8593 25.6018 73.5559 25.4345 74.259 25.4595C77.0824 25.3989 78.9121 27.5922 78.9121 31.0336ZM76.5977 31.0336C76.5977 28.8161 75.4586 27.3983 73.7015 27.3983C71.9445 27.3983 70.8297 28.8888 70.8297 31.0336C70.8297 33.1784 71.9808 34.6689 73.7015 34.6689C75.4223 34.6689 76.5977 33.2148 76.5977 30.973V31.0336Z" fill="white"/>
<path d="M86.8981 32.2463C87.0677 33.7368 88.5097 34.6698 90.5334 34.6698C92.557 34.6698 93.793 33.6883 93.793 32.3432C93.793 30.9982 92.969 30.4771 91.0181 29.9924L89.0671 29.5198C86.3043 28.8534 85.0319 27.5689 85.0319 25.4725C85.0319 22.8672 87.2858 21.0859 90.497 21.0859C93.7082 21.0859 95.8651 22.8672 95.9378 25.4725H93.6234C93.4901 23.9699 92.242 23.049 90.4364 23.049C88.6309 23.049 87.3828 23.9578 87.3828 25.3029C87.3828 26.3571 88.1704 26.9872 90.1092 27.4719L91.7694 27.8718C94.8594 28.5989 96.1438 29.847 96.1438 32.0403C96.1438 34.8637 93.89 36.6208 90.3274 36.6208C86.995 36.6208 84.7411 34.9001 84.5957 32.1857L86.8981 32.2463Z" fill="white"/>
<path d="M101.004 22.916V25.5092H103.088V27.2905H101.004V33.3493C101.004 34.2824 101.416 34.7186 102.337 34.7186C102.579 34.7186 102.834 34.7186 103.076 34.7186V36.4878C102.677 36.5638 102.271 36.6003 101.865 36.5969C99.6349 36.5969 98.7746 35.7607 98.7746 33.628V27.2905H97.1387V25.5092H98.7382V22.916H101.004Z" fill="white"/>
<path d="M104.299 31.0347C104.299 27.5812 106.322 25.4121 109.497 25.4121C112.672 25.4121 114.696 27.5812 114.696 31.0347C114.696 34.4882 112.696 36.621 109.497 36.621C106.298 36.621 104.299 34.464 104.299 31.0347ZM112.406 31.0347C112.406 28.6718 111.315 27.2661 109.497 27.2661C107.68 27.2661 106.638 28.6112 106.638 31.0347C106.638 33.4582 107.716 34.8033 109.546 34.8033C111.376 34.8033 112.454 33.4098 112.454 31.0347H112.406Z" fill="white"/>
<path d="M116.562 25.5088H118.756V27.3991C118.903 26.8168 119.245 26.3027 119.726 25.9431C120.207 25.5834 120.797 25.4001 121.397 25.4239C121.658 25.4222 121.919 25.4506 122.173 25.5088V27.6172C121.857 27.4869 121.521 27.4131 121.179 27.3991C120.876 27.3795 120.572 27.4207 120.285 27.5203C119.998 27.6199 119.734 27.7759 119.508 27.9792C119.282 28.1824 119.099 28.4287 118.97 28.7037C118.841 28.9787 118.768 29.2767 118.756 29.5803C118.756 29.6893 118.756 29.8105 118.756 29.9317V36.4874H116.562V25.5088Z" fill="white"/>
<path d="M132.544 33.2636C132.241 35.2509 130.302 36.6202 127.83 36.6202C124.631 36.6202 122.656 34.4754 122.656 31.0461C122.656 27.6168 124.644 25.375 127.734 25.375C130.824 25.375 132.678 27.4592 132.678 30.7916V31.555H124.922V31.7004C124.858 32.4536 125.095 33.2015 125.581 33.7805C126.067 34.3596 126.763 34.7227 127.515 34.7904H127.879C128.41 34.84 128.944 34.7172 129.4 34.44C129.856 34.1628 130.211 33.746 130.412 33.2515L132.544 33.2636ZM124.934 29.9797H130.424C130.464 29.2919 130.232 28.6158 129.779 28.0968C129.326 27.5779 128.687 27.2576 128 27.2048H127.794C127.429 27.2016 127.066 27.2706 126.728 27.4079C126.389 27.5451 126.081 27.7479 125.821 28.0046C125.56 28.2614 125.354 28.5669 125.212 28.9038C125.07 29.2406 124.997 29.6022 124.995 29.9676L124.934 29.9797Z" fill="white"/>
<path d="M45.8401 10.1067C46.6843 10.0499 47.5169 10.3286 48.1567 10.8822C48.7966 11.4359 49.1921 12.2197 49.2573 13.0634C49.2815 13.2768 49.2815 13.4922 49.2573 13.7056C49.2573 16.008 48.0455 17.3409 45.8643 17.3409H43.2227V10.0703L45.8401 10.1067ZM44.3496 16.3109H45.7068C46.0064 16.3323 46.3073 16.2938 46.592 16.1978C46.8766 16.1019 47.1394 15.9502 47.3649 15.7518C47.5904 15.5533 47.7742 15.312 47.9056 15.0418C48.037 14.7717 48.1134 14.4781 48.1303 14.1782C48.1424 14.0249 48.1424 13.871 48.1303 13.7177C48.1713 13.4209 48.1533 13.1189 48.0773 12.829C48.0014 12.5392 47.8691 12.2671 47.6878 12.0285C47.5066 11.7899 47.2801 11.5893 47.0212 11.4384C46.7624 11.2874 46.4763 11.189 46.1794 11.1488C46.0342 11.1367 45.8883 11.1367 45.7431 11.1488H44.3496V16.3109Z" fill="white"/>
<path d="M50.5036 14.6022C50.4393 13.9192 50.6489 13.2388 51.0864 12.7104C51.5239 12.182 52.1533 11.8491 52.8362 11.7848C53.5192 11.7205 54.1997 11.9302 54.728 12.3677C55.2564 12.8051 55.5893 13.4345 55.6536 14.1175C55.6657 14.2788 55.6657 14.4408 55.6536 14.6022C55.675 15.26 55.4455 15.9014 55.0116 16.3963C54.5777 16.8912 53.9718 17.2025 53.3168 17.2673C52.6618 17.332 52.0067 17.1452 51.4843 16.7449C50.9619 16.3445 50.6113 15.7604 50.5036 15.1111C50.4914 14.9417 50.4914 14.7716 50.5036 14.6022ZM54.5388 14.6022C54.5388 13.3904 54.0177 12.7361 53.0846 12.7361C52.1516 12.7361 51.6184 13.4268 51.6184 14.6022C51.6184 15.7776 52.1031 16.4925 53.0846 16.4925C54.0662 16.4925 54.5388 15.8018 54.5388 14.6143V14.6022Z" fill="white"/>
<path d="M62.4905 17.342H61.3756L60.2487 13.319H60.1639L59.0369 17.342H57.9342L56.4316 11.877H57.5222L58.5038 16.0454H58.5765L59.7034 11.877H60.7334L61.8604 16.0454H61.9452L62.9146 11.877H63.9931L62.4905 17.342Z" fill="white"/>
<path d="M65.2547 11.8767H66.2968V12.7492H66.3816C66.5156 12.4371 66.7448 12.1754 67.0364 12.0013C67.328 11.8272 67.6671 11.7497 68.0054 11.7798C68.2379 11.7616 68.4716 11.7896 68.6933 11.862C68.9149 11.9345 69.12 12.0501 69.2968 12.2021C69.4736 12.3542 69.6186 12.5396 69.7235 12.7479C69.8284 12.9562 69.891 13.1831 69.9079 13.4157C69.9201 13.5446 69.9201 13.6745 69.9079 13.8034V17.3418H68.8294V14.07C68.8294 13.1854 68.4416 12.7492 67.6176 12.7492C67.4506 12.7358 67.2825 12.7572 67.1241 12.8121C66.9657 12.8669 66.8204 12.954 66.6974 13.0679C66.5744 13.1818 66.4764 13.32 66.4095 13.4737C66.3426 13.6274 66.3084 13.7933 66.3089 13.961V17.3418H65.2305L65.2547 11.8767Z" fill="white"/>
<path d="M71.6016 9.75586H72.7043V17.3415H71.6258L71.6016 9.75586Z" fill="white"/>
<path d="M74.1842 14.6022C74.1199 13.9192 74.3295 13.2388 74.767 12.7104C75.2044 12.182 75.8339 11.8491 76.5168 11.7848C77.1997 11.7205 77.8802 11.9302 78.4086 12.3677C78.9369 12.8051 79.2699 13.4345 79.3342 14.1175C79.3463 14.2788 79.3463 14.4408 79.3342 14.6022C79.3556 15.26 79.1261 15.9014 78.6922 16.3963C78.2583 16.8912 77.6524 17.2025 76.9974 17.2673C76.3424 17.332 75.6873 17.1452 75.1649 16.7449C74.6425 16.3445 74.2919 15.7604 74.1842 15.1111C74.16 14.9423 74.16 14.771 74.1842 14.6022ZM78.2193 14.6022C78.2193 13.3904 77.6862 12.7361 76.7531 12.7361C75.82 12.7361 75.299 13.4268 75.299 14.6022C75.299 15.7776 75.82 16.4925 76.7531 16.4925C77.6862 16.4925 78.2193 15.7897 78.2193 14.6022Z" fill="white"/>
<path d="M80.4614 15.7906C80.4614 14.8091 81.1885 14.2517 82.4972 14.1669L83.9756 14.0699V13.5973C83.9756 13.0278 83.5878 12.7006 82.8486 12.7006C82.1094 12.7006 81.8307 12.9188 81.7217 13.3065H80.6674C80.7886 12.3613 81.6611 11.7676 82.8971 11.7676C84.1331 11.7676 85.0419 12.4462 85.0419 13.5973V17.3417H83.9998V16.5662H83.915C83.7461 16.8446 83.5046 17.0718 83.2164 17.2233C82.9282 17.3749 82.6042 17.4451 82.2791 17.4265C82.0641 17.45 81.8465 17.4306 81.639 17.3694C81.4315 17.3083 81.2383 17.2066 81.0703 17.0702C80.9024 16.9338 80.7632 16.7655 80.6608 16.575C80.5583 16.3845 80.4947 16.1756 80.4736 15.9603C80.4635 15.9043 80.4594 15.8475 80.4614 15.7906ZM83.9756 15.2817V14.8212L82.6426 14.9061C81.8913 14.9061 81.5399 15.2211 81.5399 15.6937C81.5399 16.1663 81.9761 16.4692 82.5578 16.4692C82.7257 16.486 82.8952 16.4695 83.0567 16.4207C83.2182 16.3719 83.3686 16.2917 83.4991 16.1848C83.6296 16.0779 83.7378 15.9464 83.8175 15.7976C83.8972 15.6489 83.9468 15.4859 83.9634 15.3181L83.9756 15.2817Z" fill="white"/>
<path d="M86.459 14.6029C86.459 12.8822 87.3436 11.7916 88.725 11.7916C89.0659 11.7755 89.4044 11.857 89.7006 12.0266C89.9968 12.1962 90.2385 12.4468 90.3972 12.7489H90.4699V9.75586H91.5484V17.3415H90.5184V16.4933H90.4336C90.2608 16.7905 90.0106 17.0354 89.7098 17.2018C89.4089 17.3682 89.0686 17.45 88.725 17.4385C87.3315 17.4263 86.459 16.3358 86.459 14.6029ZM87.5738 14.6029C87.5738 15.8147 88.1191 16.4569 89.0279 16.4569C89.9368 16.4569 90.4942 15.7541 90.4942 14.615C90.4942 13.476 89.9246 12.761 89.0279 12.761C88.1312 12.761 87.5738 13.4639 87.5738 14.6029Z" fill="white"/>
<path d="M96.0075 14.6022C95.9432 13.9192 96.1529 13.2388 96.5903 12.7104C97.0278 12.182 97.6572 11.8491 98.3401 11.7848C99.0231 11.7205 99.7036 11.9302 100.232 12.3677C100.76 12.8051 101.093 13.4345 101.157 14.1175C101.17 14.2788 101.17 14.4408 101.157 14.6022C101.179 15.26 100.949 15.9014 100.515 16.3963C100.082 16.8912 99.4757 17.2025 98.8207 17.2673C98.1657 17.332 97.5106 17.1452 96.9882 16.7449C96.4658 16.3445 96.1152 15.7604 96.0075 15.1111C95.9953 14.9417 95.9953 14.7716 96.0075 14.6022ZM100.043 14.6022C100.043 13.3904 99.5095 12.7361 98.5885 12.7361C97.6676 12.7361 97.1223 13.4268 97.1223 14.6022C97.1223 15.7776 97.6434 16.4925 98.5885 16.4925C99.5337 16.4925 100.043 15.7897 100.043 14.6022Z" fill="white"/>
<path d="M102.602 11.877H103.632V12.7495H103.717C103.853 12.4365 104.084 12.1743 104.378 12.0003C104.672 11.8263 105.013 11.7492 105.353 11.7801C105.821 11.7467 106.284 11.8998 106.641 12.2062C106.997 12.5127 107.218 12.9475 107.255 13.416C107.268 13.5449 107.268 13.6748 107.255 13.8037V17.3421H106.189V14.0703C106.189 13.1857 105.801 12.7495 104.977 12.7495C104.81 12.7361 104.642 12.7575 104.483 12.8124C104.325 12.8672 104.18 12.9544 104.057 13.0682C103.934 13.1821 103.836 13.3203 103.769 13.474C103.702 13.6277 103.668 13.7936 103.668 13.9613C103.662 14.0217 103.662 14.0826 103.668 14.143V17.3421H102.59L102.602 11.877Z" fill="white"/>
<path d="M113.324 10.5195V11.9131H114.536V12.8582H113.324V15.6695C113.324 16.2391 113.554 16.4935 114.087 16.4935H114.499V17.3902C114.306 17.4083 114.111 17.4083 113.918 17.3902C112.706 17.3902 112.246 16.9661 112.246 15.924V12.8582H111.373V11.9615H112.246V10.5195H113.324Z" fill="white"/>
<path d="M115.965 9.75586H117.043V12.761H117.128C117.267 12.4522 117.497 12.193 117.787 12.0177C118.077 11.8424 118.414 11.7593 118.752 11.7795C118.988 11.7664 119.223 11.8 119.446 11.8782C119.669 11.9564 119.874 12.0778 120.049 12.2354C120.225 12.393 120.368 12.5837 120.469 12.7966C120.571 13.0095 120.63 13.2404 120.642 13.476C120.655 13.5887 120.655 13.7025 120.642 13.8153V17.3415H119.564V14.0697C119.564 13.1973 119.164 12.761 118.352 12.761C118.181 12.7462 118.009 12.766 117.846 12.8195C117.682 12.873 117.532 12.9589 117.403 13.0721C117.274 13.1853 117.169 13.3235 117.095 13.4783C117.02 13.6331 116.978 13.8013 116.971 13.9728V17.3415H115.965V9.75586Z" fill="white"/>
<path d="M126.942 15.8638C126.795 16.3741 126.47 16.8144 126.024 17.1038C125.579 17.3932 125.045 17.5123 124.519 17.4391C124.19 17.4555 123.862 17.405 123.554 17.2906C123.246 17.1762 122.964 17.0003 122.726 16.7736C122.488 16.5469 122.299 16.2741 122.169 15.9719C122.04 15.6696 121.973 15.3443 121.974 15.0156C121.962 14.8825 121.962 14.7487 121.974 14.6157C121.93 14.2886 121.95 13.956 122.035 13.6369C122.119 13.3178 122.266 13.0185 122.466 12.7562C122.667 12.4939 122.917 12.2738 123.202 12.1083C123.488 11.9429 123.804 11.8355 124.131 11.7923C124.252 11.7802 124.373 11.7802 124.494 11.7923C126.009 11.7923 126.918 12.8223 126.918 14.543V14.9186H123.077V14.9792C123.065 15.171 123.092 15.3631 123.157 15.544C123.221 15.725 123.322 15.8912 123.452 16.0325C123.582 16.1739 123.739 16.2876 123.914 16.3669C124.089 16.4462 124.278 16.4894 124.47 16.4939H124.603C124.863 16.5232 125.125 16.4756 125.358 16.3572C125.59 16.2387 125.783 16.0545 125.912 15.8274L126.942 15.8638ZM123.161 14.0704H125.912C125.936 13.7238 125.822 13.382 125.595 13.1189C125.368 12.8558 125.047 12.6926 124.7 12.6647H124.567C124.194 12.6647 123.837 12.8128 123.573 13.0764C123.309 13.34 123.161 13.6976 123.161 14.0704Z" fill="white"/>
</g>
<defs>
<clipPath id="clip0_4603_8670">
<rect width="145" height="48" fill="white"/>
</clipPath>
</defs>
</svg>
