<svg width="66" height="66" viewBox="0 0 66 66" fill="none" xmlns="http://www.w3.org/2000/svg">
<g clip-path="url(#clip0_4735_4798)">
<path fill-rule="evenodd" clip-rule="evenodd" d="M32.7491 8.40639C34.4106 6.58451 36.7825 5.49597 39.3262 5.49597C44.2304 5.49597 48.2179 9.48347 48.2179 14.3876C48.2179 20.505 44.8851 23.1635 35.9981 30.2525L35.9919 30.2574L32.7491 32.847L29.5064 30.2574L29.5002 30.2524C20.6132 23.1635 17.2804 20.505 17.2804 14.3876C17.2804 9.48347 21.2679 5.49597 26.1721 5.49597C28.7158 5.49597 31.0877 6.58451 32.7491 8.40639ZM32.7491 28.447L33.8491 27.5647H33.8606C42.7064 20.5064 44.7919 18.6731 44.7919 14.3762C44.7919 11.3626 42.3398 8.92201 39.3377 8.92201C37.1606 8.92201 35.2012 10.2053 34.3304 12.1991L34.2616 12.3595H31.2481L31.1794 12.1991C30.3085 10.2053 28.3377 8.92201 26.1721 8.92201C23.1585 8.92201 20.7179 11.3741 20.7179 14.3762C20.7179 18.6845 22.8033 20.5064 31.6491 27.5647L32.7491 28.447ZM15.5619 60.4956L12.8807 58.3414L18.0484 51.9018H41.2973L55.6317 37.5445L55.4255 37.2925C54.5203 36.181 52.9275 35.8945 51.7015 36.6393L37.8255 45.0727L24.1442 45.107V41.6695L36.863 41.6352L49.914 33.6945C52.6067 32.056 56.1244 32.6748 58.0953 35.1268L60.2265 37.7852L42.7067 55.3393H19.6984L15.5619 60.4956ZM8.81296 46.8147L6.38379 44.3855L12.8692 37.9001C14.9202 35.8491 17.6588 34.7147 20.5692 34.7147H35.1098V38.1522H20.5692C18.6098 38.1522 16.6848 38.9428 15.2984 40.3293L8.81296 46.8147Z" fill="#21201F"/>
</g>
<defs>
<clipPath id="clip0_4735_4798">
<rect width="55" height="55" fill="white" transform="translate(5.24902 5.49567)"/>
</clipPath>
</defs>
</svg>
