<svg width="66" height="66" viewBox="0 0 66 66" fill="none" xmlns="http://www.w3.org/2000/svg">
<g clip-path="url(#clip0_4735_4854)">
<path fill-rule="evenodd" clip-rule="evenodd" d="M39.7196 15.87C39.7196 21.5785 35.0908 26.2074 29.3822 26.2074C23.6737 26.2074 19.0448 21.5785 19.0448 15.87C19.0448 10.1614 23.6737 5.53259 29.3822 5.53259C35.0908 5.53259 39.7196 10.1614 39.7196 15.87ZM36.2738 15.87C36.2738 12.0681 33.1841 8.97839 29.3822 8.97839C25.5804 8.97839 22.4906 12.0681 22.4906 15.87C22.4906 19.6718 25.5804 22.7616 29.3822 22.7616C33.1841 22.7616 36.2738 19.6718 36.2738 15.87ZM29.3823 29.6532C22.6285 29.6532 16.0471 30.8822 9.81017 33.3057L8.70752 33.7307V53.5555H12.1533V36.1083C17.6666 34.1097 23.4555 33.099 29.3823 33.099V29.6532ZM44.8883 29.6532C36.3198 29.6532 29.3822 36.5907 29.3822 45.1593C29.3822 53.7278 36.3198 60.6653 44.8883 60.6653C53.4569 60.6653 60.3944 53.7278 60.3944 45.1593C60.3944 36.5907 53.4569 29.6532 44.8883 29.6532ZM44.8883 57.2195C38.2379 57.2195 32.828 51.8096 32.828 45.1593C32.828 38.5089 38.2379 33.099 44.8883 33.099C48.0699 33.099 50.9644 34.3509 53.1238 36.3725L44.7964 46.0781L40.9371 42.2188L38.5021 44.6539L44.9802 51.132L55.3061 39.1061C56.3399 40.8865 56.9486 42.9539 56.9486 45.1478C56.9486 51.7982 51.5387 57.2081 44.8883 57.2081V57.2195Z" fill="#21201F"/>
</g>
<defs>
<clipPath id="clip0_4735_4854">
<rect width="55.1328" height="55.1328" fill="white" transform="translate(5.26172 5.53265)"/>
</clipPath>
</defs>
</svg>
