<svg width="145" height="48" viewBox="0 0 145 48" fill="none" xmlns="http://www.w3.org/2000/svg">
<path d="M133.461 0H9.09053C8.27816 0.0118293 7.46783 0.0840504 6.66639 0.216054C5.86315 0.345762 5.08582 0.601006 4.36345 0.972243C3.63332 1.33699 2.96971 1.81972 2.3999 2.4006C1.81764 2.9658 1.33431 3.62292 0.969656 4.34509C0.601913 5.0634 0.34454 5.83206 0.206052 6.62566C0.0707902 7.41888 0.00187227 8.2218 0 9.02626C0 9.39835 0 9.77044 0 10.1305V37.8815C0 38.2536 0 38.6137 0 38.9857C0.00187227 39.7902 0.0707902 40.5931 0.206052 41.3863C0.342654 42.1842 0.600089 42.9571 0.969656 43.6789C1.33769 44.3955 1.82072 45.0481 2.3999 45.6114C2.97065 46.188 3.63421 46.6666 4.36345 47.0278C5.0881 47.3936 5.86457 47.6486 6.66639 47.7839C7.46783 47.9159 8.27816 47.9882 9.09053 48H135.897C136.71 47.9882 137.52 47.9159 138.321 47.7839C139.127 47.6469 139.907 47.3921 140.637 47.0278C141.364 46.6635 142.027 46.1852 142.6 45.6114C143.172 45.0418 143.654 44.3904 144.03 43.6789C144.394 42.9559 144.648 42.1832 144.782 41.3863C144.915 40.5927 144.988 39.7902 145 38.9857C145 38.6137 145 38.2536 145 37.8815V10.1305C145 9.77044 145 9.39835 145 9.02626C144.988 8.22178 144.915 7.41932 144.782 6.62566C144.648 5.83262 144.394 5.06393 144.03 4.34509C143.278 2.90395 142.092 1.72967 140.637 0.984246C139.907 0.61994 139.127 0.36509 138.321 0.228057C137.52 0.0960534 136.71 0.0238323 135.897 0.012003H133.473L133.461 0Z" fill="black"/>
<path d="M133.461 0H9.09053C8.27816 0.0118293 7.46783 0.0840504 6.66639 0.216054C5.86315 0.345762 5.08582 0.601006 4.36345 0.972243C3.63332 1.33699 2.96971 1.81972 2.3999 2.4006C1.81764 2.9658 1.33431 3.62292 0.969656 4.34509C0.601913 5.0634 0.34454 5.83206 0.206052 6.62566C0.0707902 7.41888 0.00187227 8.2218 0 9.02626C0 9.39835 0 9.77044 0 10.1305V37.8815C0 38.2536 0 38.6137 0 38.9857C0.00187227 39.7902 0.0707902 40.5931 0.206052 41.3863C0.342654 42.1842 0.600089 42.9571 0.969656 43.6789C1.33769 44.3955 1.82072 45.0481 2.3999 45.6114C2.97065 46.188 3.63421 46.6666 4.36345 47.0278C5.0881 47.3936 5.86457 47.6486 6.66639 47.7839C7.46783 47.9159 8.27816 47.9882 9.09053 48H135.897C136.71 47.9882 137.52 47.9159 138.321 47.7839C139.127 47.6469 139.907 47.3921 140.637 47.0278C141.364 46.6635 142.027 46.1852 142.6 45.6114C143.172 45.0418 143.654 44.3904 144.03 43.6789C144.394 42.9559 144.648 42.1832 144.782 41.3863C144.915 40.5927 144.988 39.7902 145 38.9857C145 38.6137 145 38.2536 145 37.8815V10.1305C145 9.77044 145 9.39835 145 9.02626C144.988 8.22178 144.915 7.41932 144.782 6.62566C144.648 5.83262 144.394 5.06393 144.03 4.34509C143.278 2.90395 142.092 1.72967 140.637 0.984246C139.907 0.61994 139.127 0.36509 138.321 0.228057C137.52 0.0960534 136.71 0.0238323 135.897 0.012003H133.473L133.461 0Z" fill="#A6A6A6" fill-opacity="0.5"/>
<path d="M10.1468 46.9519H9.05497C8.29613 46.964 7.53753 46.9158 6.78648 46.8077C6.0778 46.6719 5.39448 46.4286 4.7606 46.0865C4.13865 45.7755 3.56969 45.3699 3.0744 44.8845C2.57836 44.3944 2.16836 43.8256 1.8613 43.2017C1.53646 42.5747 1.3114 41.9016 1.1941 41.2064C1.07483 40.4628 1.00996 39.7116 1 38.9587C1 38.7063 1 37.8529 1 37.8529V10.075C1 10.075 1 9.24562 1 9.00523C1.00996 8.25233 1.07483 7.50114 1.1941 6.75751C1.30514 6.05474 1.52616 5.37344 1.84917 4.73818C2.15981 4.1164 2.56941 3.54821 3.06227 3.0554C3.56239 2.5703 4.13528 2.16483 4.7606 1.85341C5.39346 1.53155 6.07273 1.30855 6.77435 1.19232C7.52809 1.06748 8.29078 1.00317 9.05497 1H10.1589H134.817H135.933C136.689 1.00435 137.444 1.06866 138.189 1.19232C138.894 1.3103 139.577 1.53318 140.215 1.85341C141.469 2.49012 142.491 3.49857 143.139 4.73818C143.454 5.36378 143.675 6.03206 143.794 6.72145C143.917 7.46882 143.986 8.22402 144 8.98119V10.051C144 10.5077 144 10.9404 144 11.3731V36.5427C144 36.9875 144 37.4082 144 37.8409V38.9587C143.986 39.7039 143.917 40.4471 143.794 41.1824C143.681 41.8809 143.46 42.5579 143.139 43.1897C142.823 43.805 142.414 44.3685 141.926 44.8605C141.428 45.3483 140.854 45.7541 140.227 46.0625C139.596 46.4147 138.912 46.6662 138.201 46.8077C137.452 46.9314 136.693 46.9957 135.933 47H10.1468V46.9519Z" fill="black"/>
<path d="M73.1892 26.053C72.2873 26.0573 71.4068 26.3288 70.659 26.8334C69.9111 27.338 69.3294 28.053 68.9872 28.8882C68.645 29.7234 68.5576 30.6414 68.7362 31.5262C68.9147 32.411 69.3512 33.2231 69.9904 33.8599C70.6297 34.4967 71.4431 34.9297 72.328 35.1043C73.2129 35.2788 74.1296 35.1871 74.9625 34.8407C75.7953 34.4942 76.507 33.9087 77.0076 33.1578C77.5083 32.4069 77.7755 31.5245 77.7755 30.6218C77.7842 30.0176 77.6714 29.4178 77.4438 28.8581C77.2161 28.2984 76.8783 27.7903 76.4503 27.364C76.0224 26.9377 75.5132 26.602 74.9529 26.3767C74.3926 26.1515 73.7928 26.0414 73.1892 26.053ZM73.1892 33.3953C72.6345 33.4341 72.081 33.305 71.6006 33.0248C71.1202 32.7446 70.7351 32.3263 70.4954 31.8241C70.2557 31.322 70.1725 30.7593 70.2566 30.2091C70.3407 29.659 70.5882 29.147 70.9669 28.7395C71.3456 28.332 71.838 28.048 72.3802 27.9244C72.9223 27.8007 73.489 27.8432 74.0067 28.0462C74.5245 28.2492 74.9692 28.6034 75.2831 29.0627C75.597 29.5221 75.7656 30.0653 75.767 30.6218C75.7843 30.9744 75.7308 31.3269 75.6098 31.6585C75.4889 31.9902 75.3028 32.2942 75.0625 32.5527C74.8223 32.8112 74.5327 33.0189 74.211 33.1636C73.8893 33.3083 73.5418 33.3871 73.1892 33.3953ZM63.1895 26.053C62.2872 26.0552 61.4057 26.3249 60.6564 26.8282C59.9071 27.3315 59.3237 28.0458 58.9799 28.8808C58.636 29.7158 58.5471 30.6341 58.7245 31.5197C58.9018 32.4052 59.3374 33.2183 59.9763 33.8562C60.6151 34.494 61.4285 34.9281 62.3137 35.1035C63.1989 35.2789 64.1162 35.1878 64.9496 34.8417C65.7831 34.4956 66.4954 33.91 66.9965 33.1589C67.4976 32.4078 67.7651 31.5249 67.7651 30.6218C67.7739 30.0176 67.6611 29.4178 67.4334 28.8581C67.2057 28.2984 66.8679 27.7903 66.44 27.364C66.012 26.9377 65.5028 26.602 64.9425 26.3767C64.3823 26.1515 63.7825 26.0414 63.1788 26.053H63.1895ZM63.1895 33.3953C62.6346 33.4363 62.0802 33.3091 61.5984 33.0304C61.1167 32.7516 60.73 32.3342 60.4886 31.8323C60.2473 31.3305 60.1624 30.7676 60.2452 30.2169C60.3279 29.6661 60.5744 29.1531 60.9526 28.7445C61.3307 28.3359 61.823 28.0508 62.3654 27.9261C62.9077 27.8015 63.475 27.8432 63.9933 28.0458C64.5117 28.2483 64.9571 28.6024 65.2716 29.0618C65.5861 29.5213 65.7551 30.0649 65.7566 30.6218C65.7739 30.9744 65.7205 31.3269 65.5995 31.6585C65.4785 31.9902 65.2924 32.2942 65.0521 32.5527C64.8119 32.8112 64.5224 33.0189 64.2006 33.1636C63.8789 33.3083 63.5314 33.3871 63.1788 33.3953H63.1895ZM51.2781 27.4613V29.3963H55.9181C55.8453 30.3077 55.4668 31.1677 54.844 31.8365C54.3798 32.3098 53.8217 32.6805 53.2057 32.9249C52.5897 33.1693 51.9294 33.2819 51.2673 33.2555C49.9 33.2555 48.5887 32.7119 47.6218 31.7442C46.6549 30.7765 46.1118 29.4641 46.1118 28.0955C46.1118 26.727 46.6549 25.4146 47.6218 24.4469C48.5887 23.4792 49.9 22.9355 51.2673 22.9355C52.5753 22.9142 53.8384 23.4129 54.7795 24.3223L56.1436 22.957C55.5083 22.3131 54.7503 21.8034 53.9145 21.4581C53.0787 21.1128 52.1822 20.9389 51.2781 20.9468C50.3232 20.9096 49.3707 21.0657 48.4775 21.4058C47.5844 21.7458 46.7691 22.2629 46.0804 22.9259C45.3917 23.5889 44.8438 24.3842 44.4695 25.2642C44.0953 26.1442 43.9023 27.0908 43.9023 28.0472C43.9023 29.0036 44.0953 29.9501 44.4695 30.8301C44.8438 31.7101 45.3917 32.5055 46.0804 33.1685C46.7691 33.8314 47.5844 34.3485 48.4775 34.6885C49.3707 35.0286 50.3232 35.1847 51.2781 35.1475C52.1974 35.1891 53.115 35.0331 53.9691 34.6901C54.8232 34.3471 55.5939 33.8249 56.2295 33.1588C57.3548 31.9214 57.9556 30.2947 57.9051 28.6223C57.9086 28.2148 57.8726 27.808 57.7977 27.4075L51.2781 27.4613ZM99.9444 28.9663C99.6642 28.1415 99.1404 27.4213 98.4423 26.901C97.7441 26.3808 96.9045 26.0851 96.0347 26.053C95.4472 26.0519 94.8657 26.1714 94.3261 26.4041C93.7866 26.6368 93.3004 26.9778 92.8978 27.406C92.4951 27.8342 92.1845 28.3405 91.9851 28.8936C91.7856 29.4467 91.7017 30.0349 91.7384 30.6218C91.7254 31.2226 91.8335 31.8199 92.0562 32.378C92.279 32.9361 92.6118 33.4435 93.0349 33.87C93.458 34.2964 93.9626 34.6332 94.5186 34.8601C95.0746 35.0869 95.6706 35.1993 96.271 35.1905C97.0223 35.1946 97.7629 35.0121 98.4265 34.6594C99.09 34.3067 99.6559 33.7948 100.073 33.1695L98.5158 32.0945C98.2834 32.4824 97.9543 32.8032 97.5608 33.0255C97.1673 33.2479 96.7229 33.3642 96.271 33.363C95.8058 33.3808 95.346 33.258 94.9514 33.0107C94.5568 32.7634 94.2456 32.403 94.0584 31.9763L100.17 29.45L99.9444 28.9663ZM93.7147 30.4928C93.693 30.1603 93.7377 29.8268 93.8463 29.5118C93.9549 29.1968 94.1253 28.9067 94.3473 28.6584C94.5694 28.4101 94.8387 28.2087 95.1395 28.0659C95.4403 27.9231 95.7666 27.8418 96.0992 27.8268C96.4456 27.8039 96.7912 27.8834 97.0929 28.0554C97.3946 28.2275 97.6391 28.4844 97.7962 28.7943L93.7147 30.4928ZM88.7525 34.9218H90.761V21.4843H88.7525V34.9218ZM85.4658 27.0743H85.3907C85.0879 26.7355 84.7171 26.4647 84.3025 26.2794C83.8879 26.0942 83.4388 25.9987 82.9847 25.9993C81.811 26.0563 80.7041 26.563 79.8935 27.4146C79.0829 28.2662 78.6308 29.3973 78.6308 30.5734C78.6308 31.7496 79.0829 32.8806 79.8935 33.7322C80.7041 34.5838 81.811 35.0906 82.9847 35.1475C83.4399 35.1552 83.8912 35.0629 84.3069 34.8772C84.7225 34.6915 85.0925 34.4168 85.3907 34.0725H85.4551V34.7283C85.4551 36.4805 84.5207 37.4158 83.017 37.4158C82.5161 37.4041 82.0301 37.2434 81.6208 36.9544C81.2115 36.6653 80.8974 36.2609 80.7184 35.7925L78.9677 36.5235C79.2973 37.3259 79.8588 38.0114 80.5802 38.4921C81.3017 38.9729 82.1502 39.227 83.017 39.2218C85.3692 39.2218 87.3133 37.835 87.3133 34.4595V26.3218H85.4658V27.0743ZM83.1673 33.3953C82.4745 33.3342 81.8297 33.0155 81.3599 32.5021C80.8902 31.9888 80.6297 31.3179 80.6297 30.6218C80.6297 29.9257 80.8902 29.2548 81.3599 28.7414C81.8297 28.228 82.4745 27.9094 83.1673 27.8483C83.5108 27.8659 83.8474 27.9522 84.157 28.102C84.4667 28.2518 84.7433 28.4622 84.9705 28.7206C85.1977 28.9791 85.371 29.2805 85.48 29.607C85.5891 29.9335 85.6317 30.2785 85.6055 30.6218C85.6348 30.9665 85.5939 31.3136 85.4854 31.6421C85.3768 31.9706 85.2028 32.2736 84.9739 32.5329C84.745 32.7922 84.4659 33.0023 84.1535 33.1505C83.8412 33.2987 83.502 33.382 83.1566 33.3953H83.1673ZM109.353 21.4843H104.552V34.9218H106.561V29.8263H109.364C109.936 29.8674 110.511 29.7901 111.052 29.5992C111.594 29.4082 112.09 29.1077 112.51 28.7163C112.93 28.325 113.265 27.8512 113.494 27.3246C113.723 26.7979 113.842 26.2297 113.842 25.6553C113.842 25.0809 113.723 24.5126 113.494 23.986C113.265 23.4593 112.93 22.9856 112.51 22.5942C112.09 22.2029 111.594 21.9024 111.052 21.7114C110.511 21.5204 109.936 21.4431 109.364 21.4843H109.353ZM109.353 27.9343H106.55V23.3548H109.396C110.007 23.3548 110.593 23.5977 111.025 24.0302C111.457 24.4626 111.7 25.0491 111.7 25.6607C111.7 26.2722 111.457 26.8587 111.025 27.2912C110.593 27.7236 110.007 27.9665 109.396 27.9665L109.353 27.9343ZM121.737 25.9993C121.006 25.9555 120.278 26.1266 119.643 26.4913C119.007 26.8561 118.492 27.3987 118.161 28.0525L119.944 28.7943C120.119 28.47 120.386 28.2039 120.71 28.0283C121.034 27.8527 121.402 27.7752 121.77 27.8053C122.025 27.7755 122.283 27.7968 122.53 27.868C122.776 27.9392 123.006 28.0588 123.206 28.2199C123.406 28.381 123.572 28.5804 123.694 28.8063C123.816 29.0323 123.892 29.2804 123.918 29.536V29.6758C123.273 29.3339 122.553 29.1567 121.823 29.1598C119.901 29.1598 117.957 30.2348 117.957 32.1805C117.976 32.5954 118.077 33.0023 118.256 33.3771C118.435 33.7519 118.687 34.087 118.997 34.3626C119.308 34.6382 119.67 34.8487 120.064 34.9817C120.457 35.1147 120.872 35.1674 121.286 35.1368C121.792 35.1731 122.298 35.0725 122.752 34.8456C123.205 34.6186 123.59 34.2736 123.864 33.8468H123.928V34.9218H125.862V29.751C125.862 27.3968 124.079 26.0315 121.791 26.0315L121.737 25.9993ZM121.49 33.363C120.835 33.363 119.922 33.0298 119.922 32.2235C119.922 31.1485 121.061 30.7938 122.07 30.7938C122.708 30.778 123.339 30.934 123.896 31.2453C123.829 31.8273 123.554 32.3654 123.122 32.7605C122.69 33.1556 122.129 33.381 121.544 33.3953L121.49 33.363ZM132.908 26.3218L130.609 32.1483H130.545L128.16 26.3218H126.012L129.589 34.4703L127.548 38.996H129.643L135.142 26.3218H132.908ZM114.853 34.9218H116.861V21.4843H114.853V34.9218Z" fill="white"/>
<path d="M50.8652 13.7474C50.8835 14.1417 50.8215 14.5356 50.683 14.9052C50.5445 15.2748 50.3324 15.6124 50.0596 15.8974C49.7551 16.2141 49.3872 16.463 48.98 16.6278C48.5729 16.7927 48.1356 16.8698 47.6967 16.8542C47.0307 16.8489 46.3811 16.6471 45.8293 16.274C45.2774 15.9009 44.8479 15.3731 44.5944 14.7567C44.341 14.1404 44.2749 13.4628 44.4045 12.809C44.5341 12.1552 44.8536 11.5543 45.323 11.0814C45.6315 10.7662 46.0013 10.5177 46.4096 10.3513C46.8179 10.1849 47.2559 10.1041 47.6967 10.1139C48.1508 10.1124 48.6003 10.2039 49.0178 10.3827C49.4065 10.5396 49.7524 10.7864 50.0274 11.1029L49.4582 11.6727C49.2438 11.4175 48.9731 11.2156 48.6673 11.0832C48.3616 10.9507 48.0293 10.8912 47.6967 10.9094C47.3612 10.9078 47.0288 10.9739 46.7195 11.104C46.4102 11.234 46.1303 11.4252 45.8966 11.6662C45.6629 11.9071 45.4802 12.1928 45.3595 12.5061C45.2388 12.8194 45.1825 13.1538 45.1941 13.4894C45.1871 13.9905 45.3285 14.4825 45.6005 14.9032C45.8724 15.324 46.2629 15.6547 46.7224 15.8536C47.182 16.0526 47.6901 16.1108 48.1828 16.021C48.6754 15.9313 49.1304 15.6975 49.4904 15.3492C49.8209 14.9907 50.0115 14.5252 50.0274 14.0377H47.6967V13.2637H50.8222C50.8509 13.4233 50.8653 13.5852 50.8652 13.7474ZM55.7845 11.0599H52.8845V13.1024H55.5267V13.8764H52.8845V15.9189H55.7845V16.7144H52.0252V10.2644H55.7845V11.0599ZM59.3074 16.7144H58.4804V11.0599H56.6759V10.2644H61.1548V11.0599H59.3074V16.7144ZM64.3126 16.7144V10.2644H65.1397V16.7144H64.3126ZM68.813 16.7144H67.986V11.0599H66.1815V10.2644H70.6067V11.0599H68.813V16.7144ZM78.9952 15.8759C78.3673 16.5009 77.5178 16.8517 76.6323 16.8517C75.7467 16.8517 74.8972 16.5009 74.2693 15.8759C73.659 15.2293 73.3189 14.3735 73.3189 13.484C73.3189 12.5945 73.659 11.7388 74.2693 11.0922C74.5788 10.7801 74.9469 10.5325 75.3525 10.3635C75.758 10.1945 76.193 10.1075 76.6323 10.1075C77.0715 10.1075 77.5065 10.1945 77.912 10.3635C78.3176 10.5325 78.6857 10.7801 78.9952 11.0922C79.608 11.7375 79.9496 12.5938 79.9496 13.484C79.9496 14.3743 79.608 15.2306 78.9952 15.8759ZM74.8815 15.3384C75.3465 15.8019 75.976 16.0621 76.6323 16.0621C77.2885 16.0621 77.918 15.8019 78.383 15.3384C78.8419 14.8321 79.0961 14.173 79.0961 13.4894C79.0961 12.8058 78.8419 12.1467 78.383 11.6404C77.918 11.177 77.2885 10.9168 76.6323 10.9168C75.976 10.9168 75.3465 11.177 74.8815 11.6404C74.4226 12.1467 74.1684 12.8058 74.1684 13.4894C74.1684 14.173 74.4226 14.8321 74.8815 15.3384ZM81.1111 16.7144V10.2644H82.1208L85.2571 15.2847V10.2644H86.0841V16.7144H85.2248L81.9489 11.4577V16.7144H81.1111Z" fill="white"/>
<path fill-rule="evenodd" clip-rule="evenodd" d="M76.6323 10.215C76.2071 10.215 75.7862 10.2992 75.3937 10.4627C75.0017 10.6261 74.6458 10.8654 74.3464 11.167C73.7555 11.7935 73.4264 12.6224 73.4264 13.484C73.4264 14.3455 73.7555 15.1744 74.3462 15.8009C74.9539 16.4051 75.7757 16.7442 76.6323 16.7442C77.4889 16.7442 78.3107 16.405 78.9184 15.8008C79.5115 15.1755 79.8422 14.3462 79.8422 13.484C79.8422 12.6217 79.5114 11.7924 78.9182 11.1671C78.6188 10.8655 78.2629 10.6261 77.8708 10.4627C77.4783 10.2992 77.0574 10.215 76.6323 10.215ZM75.3112 10.2643C75.7298 10.0898 76.1788 10 76.6323 10C77.0857 10 77.5347 10.0898 77.9533 10.2643C78.372 10.4387 78.752 10.6943 79.0714 11.0164L79.0731 11.0181C79.7048 11.6834 80.057 12.5662 80.057 13.484C80.057 14.4019 79.7048 15.2846 79.0731 15.95L79.071 15.9522C78.4229 16.5971 77.5462 16.9592 76.6323 16.9592C75.7183 16.9592 74.8416 16.5971 74.1936 15.9521L74.1912 15.9498C73.562 15.2832 73.2115 14.401 73.2115 13.484C73.2115 12.5671 73.5621 11.6849 74.1912 11.0183L74.193 11.0164C74.5125 10.6943 74.8925 10.4387 75.3112 10.2643ZM47.6943 10.2214C47.2682 10.2119 46.8448 10.29 46.4501 10.4509C46.0554 10.6117 45.6979 10.8519 45.3997 11.1566L45.3992 11.1572C44.9447 11.615 44.6354 12.1969 44.5099 12.83C44.3844 13.463 44.4483 14.119 44.6938 14.7158C44.9392 15.3126 45.3551 15.8237 45.8894 16.185C46.4238 16.5462 47.0527 16.7416 47.6975 16.7467L47.7005 16.7467C48.1243 16.7618 48.5466 16.6874 48.9398 16.5282C49.3329 16.369 49.6881 16.1287 49.9822 15.823C50.2449 15.5484 50.4491 15.2234 50.5824 14.8675C50.7158 14.5115 50.7755 14.1321 50.7579 13.7524L50.8652 13.7474L50.7578 13.7474C50.7578 13.6214 50.7488 13.4957 50.7309 13.3712H47.8041V13.9302H50.1384L50.1348 14.0412C50.118 14.5545 49.9173 15.0446 49.5693 15.4221L49.5652 15.4266C49.1899 15.7896 48.7155 16.0332 48.202 16.1268C47.6885 16.2204 47.1588 16.1597 46.6798 15.9523C46.2007 15.7449 45.7938 15.4002 45.5103 14.9616C45.2272 14.5238 45.0799 14.0119 45.0867 13.4905C45.075 13.1413 45.1337 12.7934 45.2593 12.4674C45.3852 12.1406 45.5757 11.8426 45.8195 11.5913C46.0633 11.34 46.3552 11.1405 46.6779 11.0049C46.9996 10.8696 47.3451 10.8006 47.694 10.8019C48.0422 10.7834 48.39 10.8459 48.71 10.9845C48.9952 11.1081 49.2514 11.2891 49.4629 11.5159L49.8793 11.0992C49.6271 10.831 49.3196 10.6204 48.9776 10.4824L48.9755 10.4815C48.5715 10.3085 48.1365 10.2199 47.697 10.2214L47.6943 10.2214ZM50.9726 13.7449C50.9912 14.153 50.9269 14.5605 50.7836 14.9429C50.64 15.3262 50.4201 15.6762 50.1372 15.9718C49.8222 16.2993 49.4415 16.557 49.0203 16.7275C48.5996 16.8978 48.1479 16.9776 47.6944 16.9616C47.0078 16.956 46.3381 16.7478 45.7692 16.3631C45.1998 15.9782 44.7566 15.4336 44.4951 14.7977C44.2336 14.1617 44.1654 13.4627 44.2992 12.7881C44.4329 12.1137 44.7624 11.4937 45.2465 11.0059C45.5652 10.6803 45.9473 10.4236 46.3691 10.2517C46.7906 10.0799 47.2427 9.99645 47.6977 10.0064C48.1656 10.005 48.6288 10.0993 49.059 10.2834C49.463 10.4467 49.8226 10.7033 50.1085 11.0324L50.1742 11.108L49.4513 11.8316L49.376 11.7418C49.1723 11.4994 48.9151 11.3077 48.6247 11.1818C48.3342 11.056 48.0186 10.9995 47.7025 11.0168L47.6962 11.0171C47.3751 11.0155 47.0571 11.0787 46.7611 11.2031C46.4651 11.3275 46.1973 11.5105 45.9736 11.741C45.75 11.9716 45.5752 12.2449 45.4597 12.5447C45.3442 12.8445 45.2904 13.1646 45.3014 13.4857L45.3016 13.4909C45.2949 13.9708 45.4302 14.4419 45.6906 14.8448C45.9511 15.2478 46.325 15.5644 46.7651 15.755C47.2052 15.9455 47.6918 16.0012 48.1635 15.9153C48.6342 15.8295 49.0691 15.6064 49.4135 15.274C49.7001 14.9622 49.8752 14.5652 49.9132 14.1452H47.5893V13.1562H50.9121L50.928 13.2447C50.9576 13.4098 50.9725 13.5772 50.9726 13.7449ZM51.9178 10.1569H55.8919V11.1674H52.9919V12.9949H55.6341V13.9839H52.9919V15.8114H55.8919V16.8219H51.9178V10.1569ZM52.1326 10.3719V16.6069H55.6771V16.0264H52.7771V13.7689H55.4193V13.2099H52.7771V10.9524H55.6771V10.3719H52.1326ZM56.5685 10.1569H61.2622V11.1674H59.4148V16.8219H58.373V11.1674H56.5685V10.1569ZM56.7834 10.3719V10.9524H58.5878V16.6069H59.2V10.9524H61.0474V10.3719H56.7834ZM64.2052 10.1569H65.2471V16.8219H64.2052V10.1569ZM64.42 10.3719V16.6069H65.0322V10.3719H64.42ZM66.0741 10.1569H70.7141V11.1674H68.9204V16.8219H67.8785V11.1674H66.0741V10.1569ZM66.2889 10.3719V10.9524H68.0934V16.6069H68.7056V10.9524H70.4993V10.3719H66.2889ZM81.0037 10.1569H82.1803L85.1497 14.91V10.1569H86.1915V16.8219H85.1653L82.0563 11.8331V16.8219H81.0037V10.1569ZM81.2185 10.3719V16.6069H81.8415V11.0822L85.2844 16.6069H85.9767V10.3719H85.3645V15.6594L82.0612 10.3719H81.2185ZM74.8057 11.5642C75.2908 11.0807 75.9476 10.8093 76.6323 10.8093C77.3169 10.8093 77.9737 11.0807 78.4588 11.5642L78.4626 11.5681C78.9395 12.0942 79.2035 12.7791 79.2035 13.4894C79.2035 14.1997 78.9394 14.8846 78.4625 15.4106L78.4589 15.4147C77.9738 15.8982 77.3169 16.1696 76.6323 16.1696C75.9476 16.1696 75.2908 15.8981 74.8057 15.4146L74.8815 15.3384L74.802 15.4106C74.3251 14.8846 74.061 14.1997 74.061 13.4894C74.061 12.7791 74.3251 12.0943 74.802 11.5682L74.8057 11.5642ZM74.9592 15.2642C75.4039 15.7064 76.0053 15.9546 76.6323 15.9546C77.2592 15.9546 77.8606 15.7064 78.3053 15.2642C78.7451 14.7779 78.9887 14.1454 78.9887 13.4894C78.9887 12.8334 78.7451 12.2009 78.3053 11.7147C77.8606 11.2725 77.2592 11.0243 76.6323 11.0243C76.0053 11.0243 75.4039 11.2725 74.9592 11.7147C74.5194 12.2009 74.2758 12.8334 74.2758 13.4894C74.2758 14.1454 74.5194 14.7779 74.9592 15.2642Z" fill="white"/>
<path d="M11.2742 37.8213L24.4323 24.1621L11.2853 10.5273C10.9341 10.7396 10.7168 11.2311 10.7168 11.8745V36.4872C10.7215 37.1306 10.931 37.5862 11.2742 37.8213Z" fill="white"/>
<path d="M24.9051 23.7857L28.8244 19.7165L12.8635 10.631C12.5947 10.4689 12.2894 10.3833 11.9785 10.3828L24.9035 23.784L24.9051 23.7857Z" fill="white"/>
<path d="M24.9034 24.541L11.9375 38.001C12.2629 38.0067 12.5835 37.9185 12.8634 37.7463L28.8559 28.6363L24.9034 24.541Z" fill="white"/>
<path d="M34.6054 23.0134L29.294 19.9844L25.2676 24.1646L29.3239 28.371L34.6038 25.3501C35.7266 24.7084 35.7266 23.6519 34.6054 23.0134Z" fill="white"/>
</svg>
