<svg width="66" height="66" viewBox="0 0 66 66" fill="none" xmlns="http://www.w3.org/2000/svg">
<g clip-path="url(#clip0_4735_4815)">
<path d="M49.0199 41.7049L46.5907 44.1341L50.9449 48.4883H35.9574C35.1896 45.5206 32.5084 43.332 29.3115 43.332C26.1146 43.332 23.4219 45.5206 22.6657 48.4883H18.999C15.2063 48.4883 12.124 45.406 12.124 41.6133C12.124 37.8206 15.2063 34.7383 18.999 34.7383H46.499C52.1824 34.7383 56.8115 30.1091 56.8115 24.4258C56.8115 18.7424 52.1824 14.1133 46.499 14.1133H22.2074C21.4396 11.1456 18.7584 8.95703 15.5615 8.95703C11.7688 8.95703 8.68652 12.0393 8.68652 15.832C8.68652 19.6247 11.7688 22.707 15.5615 22.707C18.7584 22.707 21.4511 20.5185 22.2074 17.5508H46.499C50.2917 17.5508 53.374 20.6331 53.374 24.4258C53.374 28.2185 50.2917 31.3008 46.499 31.3008H18.999C13.3157 31.3008 8.68652 35.9299 8.68652 41.6133C8.68652 47.2966 13.3157 51.9258 18.999 51.9258H22.6657C23.4334 54.8935 26.1146 57.082 29.3115 57.082C32.5084 57.082 35.2011 54.8935 35.9574 51.9258H50.9449L46.5907 56.2799L49.0199 58.7091L57.5219 50.207L49.0199 41.7049ZM18.999 15.832C18.999 17.7227 17.4521 19.2695 15.5615 19.2695C13.6709 19.2695 12.124 17.7227 12.124 15.832C12.124 13.9414 13.6709 12.3945 15.5615 12.3945C17.4521 12.3945 18.999 13.9414 18.999 15.832ZM32.749 50.207C32.749 52.0977 31.2021 53.6445 29.3115 53.6445C27.4209 53.6445 25.874 52.0977 25.874 50.207C25.874 48.3164 27.4209 46.7695 29.3115 46.7695C31.2021 46.7695 32.749 48.3164 32.749 50.207Z" fill="#21201F"/>
</g>
<defs>
<clipPath id="clip0_4735_4815">
<rect width="55" height="55" fill="white" transform="translate(5.24902 5.51935)"/>
</clipPath>
</defs>
</svg>
