<svg width="79" height="36" viewBox="0 0 79 36" fill="none" xmlns="http://www.w3.org/2000/svg">
<path d="M0 29.065H2.41448C3.03639 29.065 3.53026 29.1534 3.89609 29.3302C4.26192 29.5009 4.52409 29.7357 4.68262 30.0344C4.84115 30.3271 4.92041 30.6594 4.92041 31.0313C4.92041 31.452 4.83505 31.8148 4.66433 32.1197C4.49361 32.4184 4.22838 32.6593 3.86865 32.8422L5.24051 35.595H3.80463L2.65227 33.1348C2.54252 33.1409 2.43582 33.144 2.33216 33.144H1.2987V35.595H0V29.065ZM2.39618 32.0922C2.86567 32.0922 3.18577 32.0038 3.35649 31.827C3.52721 31.6502 3.61257 31.4032 3.61257 31.0862C3.61257 30.7691 3.52111 30.5283 3.3382 30.3637C3.15528 30.1991 2.81994 30.1167 2.33216 30.1167H1.2987V32.0922H2.39618Z" fill="white"/>
<path d="M5.78111 30.821H7.06151V35.595H5.78111V30.821ZM5.77196 29.0467H7.06151V30.1167H5.77196V29.0467Z" fill="white"/>
<path d="M12.5098 35.595H11.266V35.0006C11.0831 35.2384 10.8697 35.4213 10.6258 35.5493C10.388 35.6774 10.1106 35.7414 9.79352 35.7414C9.36062 35.7414 8.99784 35.6377 8.70517 35.4304C8.41861 35.217 8.20216 34.9244 8.05583 34.5524C7.90949 34.1744 7.83633 33.7415 7.83633 33.2537C7.83633 32.455 8.01924 31.827 8.38507 31.3697C8.7509 30.9063 9.25087 30.6746 9.88497 30.6746C10.135 30.6746 10.3758 30.7265 10.6075 30.8301C10.8453 30.9277 11.0526 31.0923 11.2294 31.324V29.065H12.5098V35.595ZM9.63804 34.5616C9.79657 34.653 9.96729 34.6988 10.1502 34.6988C10.4977 34.6988 10.766 34.5799 10.955 34.3421C11.144 34.0982 11.2385 33.7628 11.2385 33.336V33.0983C11.2385 32.6288 11.1471 32.2812 10.9642 32.0556C10.7813 31.824 10.5252 31.7081 10.1959 31.7081C9.87888 31.7081 9.6228 31.824 9.42769 32.0556C9.23258 32.2873 9.13502 32.6715 9.13502 33.208C9.13502 33.5738 9.18075 33.8665 9.27221 34.086C9.36367 34.3055 9.48561 34.464 9.63804 34.5616Z" fill="white"/>
<path d="M15.6306 35.7414C14.8746 35.7414 14.2923 35.5249 13.8838 35.092C13.4814 34.653 13.2802 34.0403 13.2802 33.2537C13.2802 32.705 13.3777 32.2386 13.5729 31.8544C13.768 31.4703 14.0393 31.1777 14.3868 30.9764C14.7405 30.7752 15.152 30.6746 15.6215 30.6746C16.3593 30.6746 16.911 30.8941 17.2769 31.3331C17.6488 31.766 17.8348 32.3422 17.8348 33.0617V33.5007H14.524C14.5789 34.3726 14.9417 34.8085 15.6124 34.8085C15.9172 34.8085 16.1428 34.7536 16.2891 34.6439C16.4355 34.528 16.533 34.3665 16.5818 34.1592H17.7799C17.6945 34.6591 17.472 35.0494 17.1123 35.3298C16.7586 35.6042 16.2647 35.7414 15.6306 35.7414ZM14.5332 32.7507H16.6184C16.6001 32.3727 16.5208 32.0861 16.3806 31.891C16.2465 31.6898 15.9934 31.5892 15.6215 31.5892C15.2557 31.5892 14.9904 31.6929 14.8258 31.9002C14.6673 32.1075 14.5697 32.391 14.5332 32.7507Z" fill="white"/>
<path d="M18.31 34.1409H19.5264C19.5751 34.3848 19.6819 34.5585 19.8465 34.6622C20.0111 34.7658 20.2397 34.8177 20.5324 34.8177C20.8373 34.8177 21.0507 34.7689 21.1726 34.6713C21.3006 34.5677 21.3647 34.4305 21.3647 34.2598C21.3647 34.1195 21.322 34.0006 21.2366 33.9031C21.1513 33.7994 20.9744 33.7263 20.7062 33.6836L20.1574 33.5921C19.566 33.4885 19.127 33.33 18.8404 33.1166C18.56 32.8971 18.4197 32.5709 18.4197 32.138C18.4197 31.6807 18.6057 31.324 18.9776 31.0679C19.3496 30.8057 19.8404 30.6746 20.4501 30.6746C20.9074 30.6746 21.2763 30.7326 21.5567 30.8484C21.8433 30.9643 22.0628 31.1258 22.2152 31.3331C22.3737 31.5343 22.4804 31.7752 22.5353 32.0556L21.3555 32.1837C21.2945 31.9764 21.2 31.8209 21.072 31.7173C20.9501 31.6136 20.7458 31.5618 20.4592 31.5618C20.1483 31.5618 19.9318 31.6166 19.8099 31.7264C19.6879 31.83 19.627 31.952 19.627 32.0922C19.627 32.2386 19.6727 32.3544 19.7642 32.4398C19.8617 32.5251 20.0507 32.5922 20.3312 32.641L20.9348 32.7507C21.5506 32.8666 21.9835 33.0373 22.2335 33.2629C22.4835 33.4824 22.6085 33.8147 22.6085 34.2598C22.6085 34.711 22.4378 35.0707 22.0963 35.339C21.7549 35.6072 21.2427 35.7414 20.5598 35.7414C19.9074 35.7414 19.377 35.6164 18.9685 35.3664C18.5661 35.1164 18.3466 34.7079 18.31 34.1409Z" fill="white"/>
<path d="M25.4526 31.9368H24.6935V30.9307H25.4526V30.6655C25.4526 30.1046 25.605 29.6869 25.9099 29.4125C26.2208 29.1321 26.6233 28.9918 27.1171 28.9918C27.2757 28.9918 27.4403 29.004 27.611 29.0284C27.7817 29.0528 27.9524 29.0894 28.1232 29.1382L27.9494 30.0619C27.8518 30.0314 27.7573 30.0131 27.6659 30.007C27.5805 29.9948 27.4982 29.9887 27.4189 29.9887C27.2116 29.9887 27.044 30.0375 26.9159 30.135C26.794 30.2326 26.733 30.4064 26.733 30.6563V30.9307H27.8488V31.9368H26.733V35.595H25.4526V31.9368Z" fill="white"/>
<path d="M28.8544 31.3606C29.2873 30.9033 29.8787 30.6746 30.6287 30.6746C31.3786 30.6746 31.9609 30.8972 32.3755 31.3423C32.7962 31.7874 33.0066 32.4032 33.0066 33.1897C33.0066 33.9823 32.7932 34.6073 32.3664 35.0646C31.9456 35.5158 31.3542 35.7414 30.5921 35.7414C29.836 35.7414 29.2507 35.5219 28.8361 35.0829C28.4215 34.6378 28.2142 34.0189 28.2142 33.2263C28.2142 32.4337 28.4276 31.8118 28.8544 31.3606ZM31.4335 32.1197C31.2628 31.8514 30.9853 31.7173 30.6012 31.7173C30.2293 31.7173 29.9549 31.8514 29.7781 32.1197C29.6013 32.3879 29.5129 32.7507 29.5129 33.208C29.5129 33.6653 29.5982 34.0311 29.769 34.3055C29.9458 34.5738 30.2232 34.7079 30.6012 34.7079C30.9853 34.7079 31.2628 34.5738 31.4335 34.3055C31.6103 34.0311 31.6987 33.6622 31.6987 33.1989C31.6987 32.7477 31.6103 32.3879 31.4335 32.1197Z" fill="white"/>
<path d="M33.7776 30.821H35.0306V31.4703C35.3781 30.9825 35.8293 30.7387 36.3841 30.7387C36.4695 30.7387 36.5487 30.7448 36.6219 30.757C36.7012 30.763 36.7713 30.7722 36.8323 30.7844L36.6951 31.891C36.6158 31.8788 36.5396 31.8697 36.4664 31.8636C36.3994 31.8514 36.3232 31.8453 36.2378 31.8453C35.9329 31.8453 35.6647 31.9337 35.433 32.1105C35.3171 32.2081 35.2257 32.3239 35.1586 32.4581C35.0915 32.5922 35.058 32.7538 35.058 32.9428V35.595H33.7776V30.821Z" fill="white"/>
<path d="M39.11 29.065H40.3904V31.3606C40.5672 31.135 40.7745 30.9643 41.0123 30.8484C41.2501 30.7326 41.5214 30.6746 41.8263 30.6746C42.4787 30.6746 42.9695 30.9002 43.2987 31.3514C43.628 31.7965 43.7926 32.3971 43.7926 33.1531C43.7926 33.9519 43.6097 34.5829 43.2439 35.0463C42.878 35.5097 42.3781 35.7414 41.744 35.7414C41.4757 35.7414 41.2196 35.6865 40.9757 35.5768C40.7379 35.467 40.5306 35.2871 40.3538 35.0372V35.595H39.11V29.065ZM41.9726 31.8636C41.8202 31.766 41.6525 31.7173 41.4696 31.7173C41.1342 31.7173 40.869 31.8361 40.6739 32.0739C40.4849 32.3117 40.3904 32.644 40.3904 33.0708V33.3178C40.3904 33.7933 40.4818 34.1439 40.6648 34.3695C40.8538 34.5951 41.1099 34.7079 41.433 34.7079C41.7501 34.7079 42.0031 34.5921 42.1921 34.3604C42.3872 34.1226 42.4848 33.7354 42.4848 33.1989C42.4848 32.833 42.439 32.5434 42.3476 32.33C42.2561 32.1105 42.1311 31.955 41.9726 31.8636Z" fill="white"/>
<path d="M48.8247 35.595H47.5717V34.964C47.1693 35.4823 46.6663 35.7414 46.0627 35.7414C45.5505 35.7414 45.1664 35.595 44.9103 35.3024C44.6542 35.0036 44.5262 34.5738 44.5262 34.0128V30.821H45.8066V33.7842C45.8066 34.1012 45.8615 34.3299 45.9712 34.4701C46.081 34.6043 46.2547 34.6713 46.4925 34.6713C46.7852 34.6713 47.0352 34.5677 47.2425 34.3604C47.34 34.2689 47.4132 34.1683 47.462 34.0586C47.5168 33.9488 47.5443 33.8086 47.5443 33.6379V30.821H48.8247V35.595Z" fill="white"/>
<path d="M49.4552 34.1409H50.6716C50.7203 34.3848 50.827 34.5585 50.9917 34.6622C51.1563 34.7658 51.3849 34.8177 51.6776 34.8177C51.9824 34.8177 52.1958 34.7689 52.3178 34.6713C52.4458 34.5677 52.5098 34.4305 52.5098 34.2598C52.5098 34.1195 52.4672 34.0006 52.3818 33.9031C52.2964 33.7994 52.1196 33.7263 51.8514 33.6836L51.3026 33.5921C50.7112 33.4885 50.2722 33.33 49.9856 33.1166C49.7052 32.8971 49.5649 32.5709 49.5649 32.138C49.5649 31.6807 49.7509 31.324 50.1228 31.0679C50.4947 30.8057 50.9856 30.6746 51.5953 30.6746C52.0526 30.6746 52.4214 30.7326 52.7019 30.8484C52.9885 30.9643 53.208 31.1258 53.3604 31.3331C53.5189 31.5343 53.6256 31.7752 53.6805 32.0556L52.5007 32.1837C52.4397 31.9764 52.3452 31.8209 52.2172 31.7173C52.0952 31.6136 51.891 31.5618 51.6044 31.5618C51.2935 31.5618 51.077 31.6166 50.9551 31.7264C50.8331 31.83 50.7722 31.952 50.7722 32.0922C50.7722 32.2386 50.8179 32.3544 50.9093 32.4398C51.0069 32.5251 51.1959 32.5922 51.4764 32.641L52.08 32.7507C52.6958 32.8666 53.1287 33.0373 53.3787 33.2629C53.6287 33.4824 53.7537 33.8147 53.7537 34.2598C53.7537 34.711 53.583 35.0707 53.2415 35.339C52.9001 35.6072 52.3879 35.7414 51.705 35.7414C51.0526 35.7414 50.5222 35.6164 50.1137 35.3664C49.7113 35.1164 49.4918 34.7079 49.4552 34.1409Z" fill="white"/>
<path d="M54.4415 30.821H55.7219V35.595H54.4415V30.821ZM54.4323 29.0467H55.7219V30.1167H54.4323V29.0467Z" fill="white"/>
<path d="M56.643 30.821H57.896V31.4429C58.1338 31.1563 58.3777 30.9582 58.6276 30.8484C58.8837 30.7326 59.1489 30.6746 59.4233 30.6746C59.9477 30.6746 60.344 30.824 60.6123 31.1228C60.8805 31.4215 61.0147 31.8483 61.0147 32.4032V35.595H59.7343V32.641C59.7343 32.3178 59.6733 32.0892 59.5514 31.955C59.4355 31.8148 59.2556 31.7447 59.0118 31.7447C58.8654 31.7447 58.7221 31.7721 58.5819 31.827C58.4478 31.8758 58.3289 31.955 58.2252 32.0648C58.1277 32.1623 58.0515 32.266 57.9966 32.3757C57.9478 32.4794 57.9234 32.6196 57.9234 32.7965V35.595H56.643V30.821Z" fill="white"/>
<path d="M64.0856 35.7414C63.3295 35.7414 62.7472 35.5249 62.3387 35.092C61.9363 34.653 61.7351 34.0403 61.7351 33.2537C61.7351 32.705 61.8327 32.2386 62.0278 31.8544C62.2229 31.4703 62.4942 31.1777 62.8418 30.9764C63.1954 30.7752 63.6069 30.6746 64.0764 30.6746C64.8142 30.6746 65.366 30.8941 65.7318 31.3331C66.1037 31.766 66.2897 32.3422 66.2897 33.0617V33.5007H62.9789C63.0338 34.3726 63.3966 34.8085 64.0673 34.8085C64.3721 34.8085 64.5977 34.7536 64.7441 34.6439C64.8904 34.528 64.988 34.3665 65.0367 34.1592H66.2348C66.1495 34.6591 65.9269 35.0494 65.5672 35.3298C65.2135 35.6042 64.7197 35.7414 64.0856 35.7414ZM62.9881 32.7507H65.0733C65.055 32.3727 64.9758 32.0861 64.8355 31.891C64.7014 31.6898 64.4483 31.5892 64.0764 31.5892C63.7106 31.5892 63.4454 31.6929 63.2808 31.9002C63.1222 32.1075 63.0247 32.391 62.9881 32.7507Z" fill="white"/>
<path d="M66.7649 34.1409H67.9813C68.0301 34.3848 68.1368 34.5585 68.3014 34.6622C68.466 34.7658 68.6947 34.8177 68.9873 34.8177C69.2922 34.8177 69.5056 34.7689 69.6275 34.6713C69.7556 34.5677 69.8196 34.4305 69.8196 34.2598C69.8196 34.1195 69.7769 34.0006 69.6916 33.9031C69.6062 33.7994 69.4294 33.7263 69.1611 33.6836L68.6124 33.5921C68.0209 33.4885 67.5819 33.33 67.2954 33.1166C67.0149 32.8971 66.8747 32.5709 66.8747 32.138C66.8747 31.6807 67.0606 31.324 67.4326 31.0679C67.8045 30.8057 68.2953 30.6746 68.905 30.6746C69.3623 30.6746 69.7312 30.7326 70.0117 30.8484C70.2982 30.9643 70.5177 31.1258 70.6702 31.3331C70.8287 31.5343 70.9354 31.7752 70.9902 32.0556L69.8104 32.1837C69.7495 31.9764 69.655 31.8209 69.5269 31.7173C69.405 31.6136 69.2007 31.5618 68.9142 31.5618C68.6032 31.5618 68.3868 31.6166 68.2648 31.7264C68.1429 31.83 68.0819 31.952 68.0819 32.0922C68.0819 32.2386 68.1276 32.3544 68.2191 32.4398C68.3167 32.5251 68.5057 32.5922 68.7861 32.641L69.3897 32.7507C70.0056 32.8666 70.4385 33.0373 70.6884 33.2629C70.9384 33.4824 71.0634 33.8147 71.0634 34.2598C71.0634 34.711 70.8927 35.0707 70.5513 35.339C70.2098 35.6072 69.6977 35.7414 69.0148 35.7414C68.3624 35.7414 67.8319 35.6164 67.4234 35.3664C67.021 35.1164 66.8015 34.7079 66.7649 34.1409Z" fill="white"/>
<path d="M71.4585 34.1409H72.6749C72.7237 34.3848 72.8304 34.5585 72.995 34.6622C73.1597 34.7658 73.3883 34.8177 73.681 34.8177C73.9858 34.8177 74.1992 34.7689 74.3212 34.6713C74.4492 34.5677 74.5132 34.4305 74.5132 34.2598C74.5132 34.1195 74.4705 34.0006 74.3852 33.9031C74.2998 33.7994 74.123 33.7263 73.8547 33.6836L73.306 33.5921C72.7146 33.4885 72.2756 33.33 71.989 33.1166C71.7085 32.8971 71.5683 32.5709 71.5683 32.138C71.5683 31.6807 71.7543 31.324 72.1262 31.0679C72.4981 30.8057 72.9889 30.6746 73.5986 30.6746C74.0559 30.6746 74.4248 30.7326 74.7053 30.8484C74.9919 30.9643 75.2113 31.1258 75.3638 31.3331C75.5223 31.5343 75.629 31.7752 75.6839 32.0556L74.5041 32.1837C74.4431 31.9764 74.3486 31.8209 74.2206 31.7173C74.0986 31.6136 73.8944 31.5618 73.6078 31.5618C73.2968 31.5618 73.0804 31.6166 72.9584 31.7264C72.8365 31.83 72.7755 31.952 72.7755 32.0922C72.7755 32.2386 72.8213 32.3544 72.9127 32.4398C73.0103 32.5251 73.1993 32.5922 73.4798 32.641L74.0834 32.7507C74.6992 32.8666 75.1321 33.0373 75.3821 33.2629C75.632 33.4824 75.757 33.8147 75.757 34.2598C75.757 34.711 75.5863 35.0707 75.2449 35.339C74.9034 35.6072 74.3913 35.7414 73.7084 35.7414C73.056 35.7414 72.5255 35.6164 72.117 35.3664C71.7146 35.1164 71.4951 34.7079 71.4585 34.1409Z" fill="white"/>
<path d="M8.17038 6.92762C8.10054 8.07986 7.9958 9.47649 7.92596 9.93039C8.10054 9.51142 8.62429 8.42902 9.28768 7.24185L12.8142 0.747462H18.9944L8.31003 17.1231L5.51674 25.5379H0L2.93295 16.7041L3.00278 0.747462H8.44971L8.17038 6.92762ZM20.5689 0.747462H28.006L24.4097 25.5379H19.1024L19.8706 21.0687H15.4362L13.3412 25.5379H7.71975L20.5689 0.747462ZM17.6708 16.3899H20.7085L22.0703 8.63851C22.2798 7.48627 22.5591 6.12455 22.6289 5.67065C22.4544 6.08962 22.0005 7.20695 21.4069 8.42902L17.6708 16.3899ZM38.4382 12.9332C38.3683 14.0854 38.2633 15.4821 38.2286 15.936C38.3683 15.517 38.6826 14.3648 39.1363 13.0729L43.1866 0.747462H48.2495L40.0092 25.5379H34.1435L34.9114 12.7237C34.9813 11.5715 35.1211 10.1748 35.1558 9.72091C35.0161 10.1399 34.7022 11.2921 34.2482 12.584L29.9883 25.5379H24.9255L33.1656 0.747462H39.1714L38.4382 12.9332ZM51.6949 16.1804L53.2314 11.5016H60.773L56.0946 25.5379H52.1489L52.4979 23.5477C51.276 25.0491 50.0888 25.7125 48.3781 25.7125C43.4549 25.7125 43.2453 19.0784 45.5845 11.9206C48.1334 4.13434 51.7648 0.258636 56.339 0.258636C60.3194 0.258636 62.0301 3.15668 62.2397 6.75304L57.3165 8.39409C57.142 5.5659 56.6181 4.76283 55.8151 4.76283C54.3835 4.76283 53.1265 6.54356 51.0664 12.8285C49.6001 17.2977 48.9368 21.4527 50.6822 21.4527C52.2188 21.4527 53.4758 18.834 54.2438 16.4946L54.3487 16.1804H51.6949ZM66.079 25.9918C59.3401 25.9918 59.3054 19.0784 61.6446 11.9206C64.1587 4.13434 67.9295 0.293552 72.2242 0.293552C78.9631 0.293552 78.9982 7.20695 76.6586 14.3648C74.1445 22.1511 70.3737 25.9918 66.079 25.9918ZM66.6377 21.5575C67.8249 21.5575 69.1167 19.8466 71.1768 13.4569C72.5385 9.267 73.7256 4.72789 71.6655 4.72789C70.4784 4.72789 69.1865 6.43878 67.1265 12.8285C65.7648 16.9486 64.5428 21.5575 66.6377 21.5575Z" fill="white"/>
</svg>
